@startuml Heater
state "Heater State" as Chickensoft_LogicBlocks_DiagramGenerator_Tests_TestCases_Heater_State {
  state "Off" as Chickensoft_LogicBlocks_DiagramGenerator_Tests_TestCases_Heater_State_Off
  state "Powered" as Chickensoft_LogicBlocks_DiagramGenerator_Tests_TestCases_Heater_State_Powered {
    state "Heating" as Chickensoft_LogicBlocks_DiagramGenerator_Tests_TestCases_Heater_State_Heating
    state "Idle" as Chickensoft_LogicBlocks_DiagramGenerator_Tests_TestCases_Heater_State_Idle
  }
}

Chickensoft_LogicBlocks_DiagramGenerator_Tests_TestCases_Heater_State --> Chickensoft_LogicBlocks_DiagramGenerator_Tests_TestCases_Heater_State : TargetTempChanged
Chickensoft_LogicBlocks_DiagramGenerator_Tests_TestCases_Heater_State_Heating --> Chickensoft_LogicBlocks_DiagramGenerator_Tests_TestCases_Heater_State_Heating : AirTempSensorChanged
Chickensoft_LogicBlocks_DiagramGenerator_Tests_TestCases_Heater_State_Heating --> Chickensoft_LogicBlocks_DiagramGenerator_Tests_TestCases_Heater_State_Idle : AirTempSensorChanged
Chickensoft_LogicBlocks_DiagramGenerator_Tests_TestCases_Heater_State_Idle --> Chickensoft_LogicBlocks_DiagramGenerator_Tests_TestCases_Heater_State_Heating : AirTempSensorChanged
Chickensoft_LogicBlocks_DiagramGenerator_Tests_TestCases_Heater_State_Idle --> Chickensoft_LogicBlocks_DiagramGenerator_Tests_TestCases_Heater_State_Idle : AirTempSensorChanged
Chickensoft_LogicBlocks_DiagramGenerator_Tests_TestCases_Heater_State_Off --> Chickensoft_LogicBlocks_DiagramGenerator_Tests_TestCases_Heater_State_Heating : TurnOn
Chickensoft_LogicBlocks_DiagramGenerator_Tests_TestCases_Heater_State_Off --> Chickensoft_LogicBlocks_DiagramGenerator_Tests_TestCases_Heater_State_Idle : TurnOn
Chickensoft_LogicBlocks_DiagramGenerator_Tests_TestCases_Heater_State_Powered --> Chickensoft_LogicBlocks_DiagramGenerator_Tests_TestCases_Heater_State_Off : TurnOff

Chickensoft_LogicBlocks_DiagramGenerator_Tests_TestCases_Heater_State_Heating : OnAirTempSensorChanged → FinishedHeating
Chickensoft_LogicBlocks_DiagramGenerator_Tests_TestCases_Heater_State_Powered : OnEnter → Chime

[*] --> Chickensoft_LogicBlocks_DiagramGenerator_Tests_TestCases_Heater_State_Off
@enduml